<svg xmlns="http://www.w3.org/2000/svg" xmlns:xlink="http://www.w3.org/1999/xlink" viewBox="0 0 75 60">
	<defs><style>.a{fill:url(#a);}.b{fill:url(#b);}.c{fill:url(#c);}.d{fill:url(#d);}.e{fill:url(#e);}</style><linearGradient id="a" x1="38.18" y1="48.85" x2="47.74" y2="13.15" gradientUnits="userSpaceOnUse"><stop offset="0" stop-color="#5badee"/><stop offset="0.05" stop-color="#50a7f0"/><stop offset="0.2" stop-color="#3397f5"/><stop offset="0.36" stop-color="#1d8bf9"/><stop offset="0.54" stop-color="#0c82fc"/><stop offset="0.74" stop-color="#037dfd"/><stop offset="1" stop-color="#007bfe"/></linearGradient><linearGradient id="b" x1="15.38" y1="20.84" x2="16.75" y2="15.76" xlink:href="#a"/><linearGradient id="c" x1="16.6" y1="25" x2="17.74" y2="20.74" xlink:href="#a"/><linearGradient id="d" x1="17.62" y1="29.15" x2="18.54" y2="25.73" xlink:href="#a"/><linearGradient id="e" x1="28.02" y1="65.63" x2="47.12" y2="-5.63" xlink:href="#a"/></defs>
	<path class="a" d="M62.09,17.05H27.15a1.58,1.58,0,0,0-1.58,1.58L22.25,43.37A1.58,1.58,0,0,0,23.82,45h35a1.57,1.57,0,0,0,1.57-1.58l3.33-24.74A1.58,1.58,0,0,0,62.09,17.05ZM57.91,20.2,43,30.67,31.79,20.2ZM28.72,21.76l8.15,8L25.4,39.57Zm-1.09,20,11.7-10L42,33.91a1.58,1.58,0,0,0,2,0l2.7-2.12L55,41.8ZM57.2,39.57l-8.08-9.74,11.4-7.67Z"/><path class="b" d="M22.66,18.3a1.25,1.25,0,0,0-1.25-1.25H10.72a1.25,1.25,0,0,0,0,2.5H21.41A1.25,1.25,0,0,0,22.66,18.3Z"/><path class="c" d="M20.86,21.62H13.48a1.25,1.25,0,0,0,0,2.5h7.38a1.24,1.24,0,0,0,1.24-1.25A1.25,1.25,0,0,0,20.86,21.62Z"/><path class="d" d="M20.1,26.19H16.05a1.25,1.25,0,0,0,0,2.49H20.1a1.25,1.25,0,1,0,0-2.49Z"/><path class="e" d="M67.07,0h-59a8,8,0,0,0-8,8V52a8,8,0,0,0,8,8h59a8,8,0,0,0,8-8V8A8,8,0,0,0,67.07,0Zm4.52,50.72a5.88,5.88,0,0,1-5.88,5.88H9.42a5.88,5.88,0,0,1-5.88-5.88V9.27A5.88,5.88,0,0,1,9.42,3.39H65.71a5.88,5.88,0,0,1,5.88,5.88Z"/>
</svg>