<svg width="14" height="23" viewBox="0 0 14 23" height="14" width="23" xmlns="http://www.w3.org/2000/svg">
	<path d="M13.0387 6.55506C13.0884 8.00255 12.6684 9.42666 11.8424 10.6163C11.0165 11.807 9.82775 12.6976 8.45435 13.157C8.45435 13.157 8.25747 13.2264 8.25747 13.3417V14.9139C8.25747 16.0032 7.37434 16.8864 6.28496 16.8864C5.19558 16.8864 4.31245 16.0032 4.31245 14.9139V13.3417C4.32182 12.4689 4.60496 11.6214 5.12151 10.9172C5.63806 10.2141 6.36183 9.69 7.19245 9.42C8.36526 9.02532 9.14058 7.90687 9.09745 6.66936C9.01307 5.15904 7.77464 3.97128 6.26161 3.95064C5.18722 3.95533 4.21222 4.57502 3.75097 5.54438C3.27752 6.52594 2.09816 6.93751 1.11649 6.465C0.134936 5.99155 -0.27664 4.81219 0.195872 3.83052C0.740552 2.68865 1.59555 1.72303 2.66331 1.04532C3.73206 0.367512 4.96957 0.00564 6.23427 0H6.28021C8.03427 0.0121877 9.71605 0.70032 10.9751 1.92094C12.2342 3.14249 12.9729 4.8019 13.0385 6.5551L13.0387 6.55506ZM8.26772 20.7986C8.26772 19.997 7.78491 19.2751 7.04521 18.9676C6.30459 18.6611 5.4524 18.8289 4.88521 19.3951C4.31802 19.9614 4.14647 20.8136 4.45208 21.5542C4.7577 22.2948 5.47863 22.7795 6.28021 22.7814C6.80615 22.7814 7.31147 22.5733 7.68459 22.2011C8.05679 21.8298 8.26679 21.3255 8.26772 20.7986V20.7986Z" fill="#fff"/>
</svg>
