<svg id="Layer_2" data-name="Layer 2" xmlns="http://www.w3.org/2000/svg" viewBox="0 0 512 512"><defs><style>.cls-1{fill:#f2eeed;}.cls-2{fill:#2b2a2a;}</style></defs><circle class="cls-1" cx="256" cy="256" r="256"/><g id="Layer_2-2" data-name="Layer 2"><path class="cls-2" d="M435.34,192.48a2.54,2.54,0,0,1,0,.39C423,272.16,389,368.08,384,381.48c-4.5,12.85-25.19,29-30.75,29-11.44,0-43.58-89.74-73.66-150.66a2.51,2.51,0,0,0-4.52,0c-23,48.57-65.64,142-73.8,148.44-5,4.47-15.08,8.38-22.34,8.38-4.47,0-7.82-1.12-8.94-5-11.13-38.55-60.84-226.79-78.72-260.31a2,2,0,0,1-.55-1.67c0-5,8.38-9.5,19.56-9.5,7.26,0,14.53,2.24,19,7.82,17.31,21.62,51.91,126.06,68.79,192.55a2.52,2.52,0,0,0,4.67.53C236.53,276.41,255.6,219.38,259.4,214c1.68-2.79,11.17-6.7,21.79-6.7,6.18,0,12.85,1.67,17.87,5.58,11.17,8.38,58.69,118.41,67,118.41,10.62,0,38.55-127.36,42.46-136.3,2.23-5,11.73-8.94,19-8.94,3.91,0,7.25,1.68,7.81,5Z"/></g></svg>